<?xml version="1.0" encoding="UTF-8"?>
<svg xmlns="http://www.w3.org/2000/svg" xmlns:xlink="http://www.w3.org/1999/xlink" width="228pt" height="201pt" viewBox="0 0 228 201" version="1.1">
<g id="surface1">
<path style="fill-rule:nonzero;fill:rgb(94.999695%,100%,94.999695%);fill-opacity:1;stroke-width:0.79701;stroke-linecap:butt;stroke-linejoin:miter;stroke:rgb(0%,0%,0%);stroke-opacity:1;stroke-miterlimit:10;" d="M -113.3855 -99.212094 L -113.3855 99.213687 L 113.387937 99.213687 L 113.387937 -99.212094 Z M -113.3855 -99.212094 " transform="matrix(1,0,0,-1,114.198,100.409)"/>
<path style="fill:none;stroke-width:0.19925;stroke-linecap:butt;stroke-linejoin:miter;stroke:rgb(0%,0%,0%);stroke-opacity:1;stroke-miterlimit:10;" d="M -113.3855 -99.212094 L -113.3855 99.213687 " transform="matrix(1,0,0,-1,114.198,100.409)"/>
<path style="fill:none;stroke-width:0.19925;stroke-linecap:butt;stroke-linejoin:miter;stroke:rgb(0%,0%,0%);stroke-opacity:1;stroke-miterlimit:10;" d="M -85.04175 -99.212094 L -85.04175 99.213687 " transform="matrix(1,0,0,-1,114.198,100.409)"/>
<path style="fill:none;stroke-width:0.19925;stroke-linecap:butt;stroke-linejoin:miter;stroke:rgb(0%,0%,0%);stroke-opacity:1;stroke-miterlimit:10;" d="M -56.694094 -99.212094 L -56.694094 99.213687 " transform="matrix(1,0,0,-1,114.198,100.409)"/>
<path style="fill:none;stroke-width:0.19925;stroke-linecap:butt;stroke-linejoin:miter;stroke:rgb(0%,0%,0%);stroke-opacity:1;stroke-miterlimit:10;" d="M -28.346438 -99.212094 L -28.346438 99.213687 " transform="matrix(1,0,0,-1,114.198,100.409)"/>
<path style="fill:none;stroke-width:0.19925;stroke-linecap:butt;stroke-linejoin:miter;stroke:rgb(0%,0%,0%);stroke-opacity:1;stroke-miterlimit:10;" d="M 0.00121875 -99.212094 L 0.00121875 99.213687 " transform="matrix(1,0,0,-1,114.198,100.409)"/>
<path style="fill:none;stroke-width:0.19925;stroke-linecap:butt;stroke-linejoin:miter;stroke:rgb(0%,0%,0%);stroke-opacity:1;stroke-miterlimit:10;" d="M 28.344969 -99.212094 L 28.344969 99.213687 " transform="matrix(1,0,0,-1,114.198,100.409)"/>
<path style="fill:none;stroke-width:0.19925;stroke-linecap:butt;stroke-linejoin:miter;stroke:rgb(0%,0%,0%);stroke-opacity:1;stroke-miterlimit:10;" d="M 56.692625 -99.212094 L 56.692625 99.213687 " transform="matrix(1,0,0,-1,114.198,100.409)"/>
<path style="fill:none;stroke-width:0.19925;stroke-linecap:butt;stroke-linejoin:miter;stroke:rgb(0%,0%,0%);stroke-opacity:1;stroke-miterlimit:10;" d="M 85.040281 -99.212094 L 85.040281 99.213687 " transform="matrix(1,0,0,-1,114.198,100.409)"/>
<path style="fill:none;stroke-width:0.19925;stroke-linecap:butt;stroke-linejoin:miter;stroke:rgb(0%,0%,0%);stroke-opacity:1;stroke-miterlimit:10;" d="M 113.387937 -99.212094 L 113.387937 99.213687 " transform="matrix(1,0,0,-1,114.198,100.409)"/>
<path style="fill:none;stroke-width:0.19925;stroke-linecap:butt;stroke-linejoin:miter;stroke:rgb(0%,0%,0%);stroke-opacity:1;stroke-miterlimit:10;" d="M -113.3855 -99.212094 L 113.387937 -99.212094 " transform="matrix(1,0,0,-1,114.198,100.409)"/>
<path style="fill:none;stroke-width:0.19925;stroke-linecap:butt;stroke-linejoin:miter;stroke:rgb(0%,0%,0%);stroke-opacity:1;stroke-miterlimit:10;" d="M -113.3855 -70.868344 L 113.387937 -70.868344 " transform="matrix(1,0,0,-1,114.198,100.409)"/>
<path style="fill:none;stroke-width:0.19925;stroke-linecap:butt;stroke-linejoin:miter;stroke:rgb(0%,0%,0%);stroke-opacity:1;stroke-miterlimit:10;" d="M -113.3855 -42.520688 L 113.387937 -42.520688 " transform="matrix(1,0,0,-1,114.198,100.409)"/>
<path style="fill:none;stroke-width:0.19925;stroke-linecap:butt;stroke-linejoin:miter;stroke:rgb(0%,0%,0%);stroke-opacity:1;stroke-miterlimit:10;" d="M -113.3855 -14.173031 L 113.387937 -14.173031 " transform="matrix(1,0,0,-1,114.198,100.409)"/>
<path style="fill:none;stroke-width:0.19925;stroke-linecap:butt;stroke-linejoin:miter;stroke:rgb(0%,0%,0%);stroke-opacity:1;stroke-miterlimit:10;" d="M -113.3855 14.174625 L 113.387937 14.174625 " transform="matrix(1,0,0,-1,114.198,100.409)"/>
<path style="fill:none;stroke-width:0.19925;stroke-linecap:butt;stroke-linejoin:miter;stroke:rgb(0%,0%,0%);stroke-opacity:1;stroke-miterlimit:10;" d="M -113.3855 42.518375 L 113.387937 42.518375 " transform="matrix(1,0,0,-1,114.198,100.409)"/>
<path style="fill:none;stroke-width:0.19925;stroke-linecap:butt;stroke-linejoin:miter;stroke:rgb(0%,0%,0%);stroke-opacity:1;stroke-miterlimit:10;" d="M -113.3855 70.866031 L 113.387937 70.866031 " transform="matrix(1,0,0,-1,114.198,100.409)"/>
<path style="fill:none;stroke-width:0.19925;stroke-linecap:butt;stroke-linejoin:miter;stroke:rgb(0%,0%,0%);stroke-opacity:1;stroke-miterlimit:10;" d="M -113.3855 99.213687 L 113.387937 99.213687 " transform="matrix(1,0,0,-1,114.198,100.409)"/>
<path style="fill-rule:nonzero;fill:rgb(100%,100%,100%);fill-opacity:1;stroke-width:0.79701;stroke-linecap:butt;stroke-linejoin:miter;stroke:rgb(0%,0%,0%);stroke-opacity:1;stroke-miterlimit:10;" d="M -56.694094 -42.520688 L -56.694094 42.518375 L 56.692625 42.518375 L 56.692625 -42.520688 Z M -56.694094 -42.520688 " transform="matrix(1,0,0,-1,114.198,100.409)"/>
</g>
</svg>
